<?xml version="1.0" encoding="UTF-8"?>
<svg version="1.1" xmlns="http://www.w3.org/2000/svg" width="252" height="300">
<path d="M0 0 C0.64646484 0.2367041 1.29292969 0.4734082 1.95898438 0.71728516 C19.24723307 7.23263261 34.10527484 17.87977822 47 31 C47.80695313 31.80824219 48.61390625 32.61648437 49.4453125 33.44921875 C68.10168507 53.11316545 80.97646595 81.27164347 81.23828125 108.51953125 C81.246353 109.33636887 81.25442474 110.15320648 81.26274109 110.99479675 C81.27652875 112.72364214 81.28727452 114.45251413 81.29516602 116.18139648 C81.30659281 117.91585509 81.32689377 119.65028118 81.35668945 121.38452148 C81.94091735 155.488417 68.13666011 184.39571593 45 209 C44.4740625 209.59039062 43.948125 210.18078125 43.40625 210.7890625 C24.10253332 231.57010444 -6.92592666 244.66135151 -34.99072266 246.15966797 C-72.34203174 247.51309835 -105.14665063 236.7033429 -132.7734375 211.09375 C-133.50820312 210.4028125 -134.24296875 209.711875 -135 209 C-135.88558594 208.21109375 -135.88558594 208.21109375 -136.7890625 207.40625 C-153.34277886 192.02933813 -163.09925519 170.40114505 -169 149 C-169.20391357 148.27707764 -169.40782715 147.55415527 -169.61791992 146.80932617 C-171.71877995 138.10629986 -171.44075148 129.08626993 -171.4375 120.1875 C-171.43860275 118.88217316 -171.43860275 118.88217316 -171.43972778 117.55047607 C-171.40992462 104.13843317 -170.60054446 91.71999172 -166 79 C-165.73767578 78.25218262 -165.47535156 77.50436523 -165.20507812 76.73388672 C-160.08877586 62.48001585 -152.97504397 49.454233 -143 38 C-142.30132812 37.18015625 -141.60265625 36.3603125 -140.8828125 35.515625 C-105.78346156 -4.70498355 -49.93294899 -18.38259364 0 0 Z " fill="#F19217" transform="translate(171,31)"/>
<path d="M0 0 C3.54075319 1.28135649 6.26055368 2.78815505 9.25 5.0625 C33.68428376 22.46377033 64.53453543 30.63101432 94 34 C95.17127441 34.13921875 95.17127441 34.13921875 96.36621094 34.28125 C104.97820363 35.1915399 113.59986227 35.2413412 122.25 35.25 C123.04280365 35.25133942 123.8356073 35.25267883 124.6524353 35.25405884 C137.14577773 35.24949836 149.31344019 34.57693006 161.64306641 32.41015625 C163.91793346 32.01428131 166.19527358 31.67391867 168.48046875 31.34375 C175.10315565 30.30780771 179.89450236 29.17621404 184.640625 24.234375 C186 23 186 23 188.875 22.5625 C191 23 191 23 192 24 C198.2691427 23.59190766 203.51748681 21.9818648 209.3125 19.625 C210.17045166 19.27920898 211.02840332 18.93341797 211.91235352 18.57714844 C222.38108605 14.20649323 233.02031822 8.78374543 241.91015625 1.671875 C244 0 244 0 246 0 C245.91814007 26.19517673 230.33529459 48.56507851 213 67 C212.4740625 67.59039062 211.948125 68.18078125 211.40625 68.7890625 C192.10253332 89.57010444 161.07407334 102.66135151 133.00927734 104.15966797 C95.65796826 105.51309835 62.85334937 94.7033429 35.2265625 69.09375 C34.49179687 68.4028125 33.75703125 67.711875 33 67 C32.11441406 66.21109375 32.11441406 66.21109375 31.2109375 65.40625 C16.45738776 51.70153081 4.52617425 31.08418267 1.3125 11.1875 C1.18294922 10.43791016 1.05339844 9.68832031 0.91992188 8.91601562 C0.41204566 5.90906597 0 3.05472334 0 0 Z " fill="#F16B17" transform="translate(3,173)"/>
<path d="M0 0 C4.875 2.75 4.875 2.75 6 5 C6.039992 6.99960012 6.04346799 9.00047242 6 11 C8.31 11 10.62 11 13 11 C13.04125 10.38125 13.0825 9.7625 13.125 9.125 C14 7 14 7 16.875 5.75 C20 5 20 5 23 5 C30.13513598 17.23166167 31.64445765 30.63105857 31.41162109 44.50146484 C31.37478581 46.76315155 31.37060615 49.02319819 31.37109375 51.28515625 C31.2937527 67.76676959 29.42418558 85.13569255 17.61328125 97.6796875 C14.57850151 100.16335712 11.0311737 100.53475259 7.1875 100.45703125 C2.65602772 99.51027722 -0.15016918 96.48721233 -3 93 C-8.32842626 84.6186823 -10.00071928 74.58478698 -12 65 C-12.17724609 64.20150635 -12.35449219 63.4030127 -12.53710938 62.58032227 C-15.73110565 44.77581453 -14.19927264 19.23492086 -3.56640625 3.9375 C-2.1875 2.25 -2.1875 2.25 0 0 Z " fill="#10100E" transform="translate(78,80)"/>
<path d="M0 0 C3.05962377 2.0255349 4.80358152 4.15377761 5.95947266 7.66040039 C9.78093846 27.83899278 8.54911892 52.2360374 -1.7578125 70.484375 C-8.01423474 79.04294396 -8.01423474 79.04294396 -12.67578125 79.79296875 C-17.02247417 80.03985492 -20.00508704 79.84227069 -23.5078125 77.109375 C-33.85367193 66.88298277 -36.7381651 50.33021071 -36.890625 36.421875 C-36.89259404 34.44889404 -36.89443022 32.47590174 -36.88818359 30.50292969 C-36.88282442 28.48885572 -36.88815452 26.47500469 -36.89453125 24.4609375 C-36.87719887 7.09388816 -36.87719887 7.09388816 -34.375 3.49609375 C-23.37906686 -4.86180162 -12.70235768 -6.10617787 0 0 Z " fill="#100F0E" transform="translate(179.7578125,100.515625)"/>
<path d="M0 0 C0.64646484 0.2367041 1.29292969 0.4734082 1.95898438 0.71728516 C14.46691827 5.43109607 29.25715559 12.62362414 38 23 C38 23.66 38 24.32 38 25 C34.29835622 24.32328267 30.78317535 23.35357835 27.1875 22.25 C-18.27328865 9.23405842 -72.18181926 7.76141198 -117.5090332 22.46240234 C-122.6888127 24.1037291 -122.6888127 24.1037291 -126 23 C-125.55269531 22.62488281 -125.10539062 22.24976562 -124.64453125 21.86328125 C-124.03996094 21.35152344 -123.43539062 20.83976562 -122.8125 20.3125 C-122.22082031 19.81363281 -121.62914062 19.31476562 -121.01953125 18.80078125 C-118.89404388 16.9585276 -118.89404388 16.9585276 -116.71484375 14.5703125 C-113.610225 11.63097561 -110.47001928 9.62663752 -106.75 7.5625 C-106.05253662 7.17489502 -105.35507324 6.78729004 -104.63647461 6.38793945 C-72.48308015 -10.91438388 -33.98124213 -12.51004353 0 0 Z " fill="#F2B716" transform="translate(171,31)"/>
<path d="M0 0 C2.4375 0.4375 2.4375 0.4375 4.25 1.625 C5.85618221 4.07654127 5.73080879 5.54323237 5.4375 8.4375 C-3.65055037 22.72286992 -27.4220454 31.18914558 -43.07421875 34.7890625 C-47.88307511 35.80138521 -52.71121054 36.65730928 -57.5625 37.4375 C-58.99517212 37.69901855 -58.99517212 37.69901855 -60.45678711 37.96582031 C-65.70507169 38.76290276 -70.950425 38.70460101 -76.25 38.75 C-77.39017578 38.77900391 -78.53035156 38.80800781 -79.70507812 38.83789062 C-80.79626953 38.84626953 -81.88746094 38.85464844 -83.01171875 38.86328125 C-84.50191528 38.88515503 -84.50191528 38.88515503 -86.0222168 38.9074707 C-88.5625 38.4375 -88.5625 38.4375 -90.41723633 36.57495117 C-91.5625 34.4375 -91.5625 34.4375 -91.4375 31.8125 C-90.5625 29.4375 -90.5625 29.4375 -87.5625 27.4375 C-85.23193359 27.21386719 -85.23193359 27.21386719 -82.4609375 27.234375 C-55.39090587 27.04476469 -28.12397673 21.71862431 -6.5625 4.4375 C-5.83804688 3.69757813 -5.11359375 2.95765625 -4.3671875 2.1953125 C-2.5625 0.4375 -2.5625 0.4375 0 0 Z " fill="#0A0400" transform="translate(191.5625,195.5625)"/>
<path d="M0 0 C6.71991313 4.03194788 9.07103881 11.79367402 11.375 18.9375 C11.96275798 21.81751412 12.07819078 23.30452306 11 26 C10.59523437 25.38640625 10.19046875 24.7728125 9.7734375 24.140625 C6.04751638 19.64325766 0.42691799 18.32339127 -5.1953125 17.57421875 C-14.46764308 17.19061169 -20.44244297 19.96162864 -28 25 C-28.47297578 16.17111887 -24.21669745 7.95559661 -19 1 C-18.67 1.66 -18.34 2.32 -18 3 C-13.87141671 4.25108584 -9.27360677 4.66344299 -5 4 C-2.03268602 2.16343011 -2.03268602 2.16343011 0 0 Z " fill="#615E5A" transform="translate(173,80)"/>
<path d="M0 0 C4.875 2.75 4.875 2.75 6 5 C6.039992 6.99960012 6.04346799 9.00047242 6 11 C8.31 11 10.62 11 13 11 C13.04125 10.38125 13.0825 9.7625 13.125 9.125 C14 7 14 7 16.875 5.75 C20 5 20 5 23 5 C27.02486663 12.49457924 30.68715072 20.29609088 30 29 C29.67 29 29.34 29 29 29 C28.94328125 28.24332031 28.8865625 27.48664063 28.828125 26.70703125 C28.22824848 23.83232058 28.22824848 23.83232058 25.734375 22.19921875 C18.07074201 18.31724759 11.5818116 16.53926611 3 18 C-2.25978643 19.86888777 -6.60361104 22.60052463 -11 26 C-10.43589189 16.22212613 -6.86267896 7.05875551 0 0 Z " fill="#625F5B" transform="translate(78,80)"/>
<path d="M0 0 C5.58949866 0.05331795 8.54898604 2.3507879 12.6875 5.9375 C13.8125 7.3125 13.8125 7.3125 13.8125 9.3125 C13.24660156 9.49425781 12.68070313 9.67601563 12.09765625 9.86328125 C11.36417969 10.11464844 10.63070312 10.36601563 9.875 10.625 C9.14410156 10.86863281 8.41320312 11.11226562 7.66015625 11.36328125 C5.45317976 12.22490441 5.45317976 12.22490441 4.8125 15.3125 C2.5025 15.3125 0.1925 15.3125 -2.1875 15.3125 C-2.31125 13.394375 -2.31125 13.394375 -2.4375 11.4375 C-2.64619931 9.25916582 -2.64619931 9.25916582 -3.1875 7.3125 C-5.10814793 5.7225567 -5.10814793 5.7225567 -7.1875 5.3125 C-4.68914636 0.14923581 -4.68914636 0.14923581 0 0 Z " fill="#959391" transform="translate(86.1875,75.6875)"/>
<path d="M0 0 C1.28583984 -0.01160156 1.28583984 -0.01160156 2.59765625 -0.0234375 C5.34062296 0.44364531 6.21849347 1.24455912 7.9375 3.375 C6.56766497 6.53615776 5.9484362 7.3677092 2.9375 9.375 C-2.01995506 9.69483581 -5.54288922 9.63480539 -10.0625 7.375 C-9.69913322 4.74059084 -9.30479394 3.60088577 -7.33203125 1.76171875 C-4.66535299 0.13233702 -3.1017739 -0.02807035 0 0 Z " fill="#DDD9D4" transform="translate(165.0625,75.625)"/>
<path d="M0 0 C1.32 1.32 2.64 2.64 4 4 C3.05125 4.4125 2.1025 4.825 1.125 5.25 C-2.14718995 7.08242637 -2.62485026 7.72079678 -4 11 C-7 13 -7 13 -9.1875 12.625 C-9.785625 12.41875 -10.38375 12.2125 -11 12 C-11.33 10.35 -11.66 8.7 -12 7 C-14.64 6.34 -17.28 5.68 -20 5 C-19.67 3.68 -19.34 2.36 -19 1 C-18.67 1.66 -18.34 2.32 -18 3 C-13.87141671 4.25108584 -9.27360677 4.66344299 -5 4 C-2.03268602 2.16343011 -2.03268602 2.16343011 0 0 Z " fill="#9E9E9E" transform="translate(173,80)"/>
<path d="M0 0 C5.02254631 -0.2954439 7.89542386 0.01485372 12 3 C11.67 3.99 11.34 4.98 11 6 C9.20841511 6.02696365 7.41671527 6.04637917 5.625 6.0625 C4.62726563 6.07410156 3.62953125 6.08570312 2.6015625 6.09765625 C0 6 0 6 -2 5 C-1.34 3.35 -0.68 1.7 0 0 Z " fill="#F2F1F1" transform="translate(84,76)"/>
<path d="M0 0 C0.66 0.33 1.32 0.66 2 1 C1.34 2.32 0.68 3.64 0 5 C2.12493141 5.02693575 4.24995912 5.04636628 6.375 5.0625 C8.15003906 5.07990234 8.15003906 5.07990234 9.9609375 5.09765625 C12.91921521 5.21466593 12.91921521 5.21466593 15 4 C14.67 5.32 14.34 6.64 14 8 C11.00519083 8.8723412 8.36424089 9.10829766 5.25 9.0625 C4.45078125 9.05347656 3.6515625 9.04445313 2.828125 9.03515625 C2.22484375 9.02355469 1.6215625 9.01195313 1 9 C1 8.34 1 7.68 1 7 C-0.32 6.34 -1.64 5.68 -3 5 C-1.125 1.125 -1.125 1.125 0 0 Z " fill="#BFBDBA" transform="translate(82,76)"/>
<path d="M0 0 C0.99 0.66 1.98 1.32 3 2 C1.63016497 5.16115776 1.0109362 5.9927092 -2 8 C-6.95745506 8.31983581 -10.48038922 8.25980539 -15 6 C-14.67 5.01 -14.34 4.02 -14 3 C-13.34 3.33 -12.68 3.66 -12 4 C-10.12620395 4.07033769 -8.24998898 4.0843022 -6.375 4.0625 C-5.37210938 4.05347656 -4.36921875 4.04445313 -3.3359375 4.03515625 C-2.56507813 4.02355469 -1.79421875 4.01195313 -1 4 C-0.67 2.68 -0.34 1.36 0 0 Z " fill="#B4B4B4" transform="translate(170,77)"/>
<path d="M0 0 C1.32 1.32 2.64 2.64 4 4 C3.071875 4.4125 2.14375 4.825 1.1875 5.25 C-1.88054681 6.93441786 -3.19040465 8.08454083 -5 11 C-5.8125 8.8125 -5.8125 8.8125 -6 6 C-3.625 3.25 -3.625 3.25 -1 1 C-0.67 0.67 -0.34 0.34 0 0 Z " fill="#82807E" transform="translate(173,80)"/>
<path d="M0 0 C1.4540625 0.0309375 1.4540625 0.0309375 2.9375 0.0625 C3.2675 0.7225 3.5975 1.3825 3.9375 2.0625 C3.6075 2.7225 3.2775 3.3825 2.9375 4.0625 C0.6275 4.0625 -1.6825 4.0625 -4.0625 4.0625 C-4.0625 0.08290816 -4.0625 0.08290816 0 0 Z " fill="#F4F4F4" transform="translate(165.0625,75.9375)"/>
<path d="M0 0 C0.66 0.33 1.32 0.66 2 1 C1.67 1.99 1.34 2.98 1 4 C-0.79133978 4.05391993 -2.58313899 4.09275571 -4.375 4.125 C-5.37273437 4.14820312 -6.37046875 4.17140625 -7.3984375 4.1953125 C-10 4 -10 4 -12 2 C-8.04 2 -4.08 2 0 2 C0 1.34 0 0.68 0 0 Z " fill="#DDDCDB" transform="translate(94,78)"/>
<path d="M0 0 C0.33 0.66 0.66 1.32 1 2 C2.66500443 2.34153937 4.33178677 2.67449498 6 3 C8 5 8 5 8.125 7.625 C8.08375 8.40875 8.0425 9.1925 8 10 C7.67 8.68 7.34 7.36 7 6 C4.36 5.34 1.72 4.68 -1 4 C-0.67 2.68 -0.34 1.36 0 0 Z " fill="#868582" transform="translate(154,81)"/>
<path d="M0 0 C0.99 0.66 1.98 1.32 3 2 C2.34 3.32 1.68 4.64 1 6 C-2.96 6 -6.92 6 -11 6 C-11 5.67 -11 5.34 -11 5 C-7.7 4.67 -4.4 4.34 -1 4 C-0.67 2.68 -0.34 1.36 0 0 Z " fill="#C8C6C4" transform="translate(170,77)"/>
<path d="M0 0 C2.5 1.375 2.5 1.375 5 3 C5 3.66 5 4.32 5 5 C2.03 4.505 2.03 4.505 -1 4 C-1.99 5.485 -1.99 5.485 -3 7 C-3.66 6.67 -4.32 6.34 -5 6 C-3.35 4.02 -1.7 2.04 0 0 Z " fill="#8B847A" transform="translate(78,80)"/>
<path d="M0 0 C0.66 0.33 1.32 0.66 2 1 C1.67 1.66 1.34 2.32 1 3 C2.65 3.33 4.3 3.66 6 4 C6 4.33 6 4.66 6 5 C3.69 5 1.38 5 -1 5 C-1.33 3.68 -1.66 2.36 -2 1 C-1.34 0.67 -0.68 0.34 0 0 Z " fill="#EAE5DF" transform="translate(160,76)"/>
</svg>
