<?xml version="1.0" encoding="UTF-8"?>
<svg version="1.1" xmlns="http://www.w3.org/2000/svg" width="1060" height="220">
<path d="M0 0 C1.06250977 -0.00193359 1.06250977 -0.00193359 2.14648438 -0.00390625 C7.87257335 0.11198516 11.47294251 1.23196167 16.1875 4.375 C16.8475 3.385 17.5075 2.395 18.1875 1.375 C20.75295961 1.1520458 23.06994396 1.09375853 25.625 1.1875 C26.30626953 1.20103516 26.98753906 1.21457031 27.68945312 1.22851562 C29.5223981 1.26621577 31.35499732 1.31984106 33.1875 1.375 C35.28268318 1.375 37.3779528 1.34952063 39.47265625 1.3046875 C40.71917969 1.28664063 41.96570313 1.26859375 43.25 1.25 C44.49910156 1.22679688 45.74820313 1.20359375 47.03515625 1.1796875 C50.1875 1.375 50.1875 1.375 52.1875 3.375 C53.08678597 9.21451931 51.95190264 13.20676897 49.1875 18.375 C49.39715053 20.7510393 50.02451789 22.09427415 51.21484375 24.14453125 C52.39785724 26.85738548 52.52232055 28.98431054 52.5625 31.9375 C52.59085938 32.88753906 52.61921875 33.83757813 52.6484375 34.81640625 C52.1875 37.375 52.1875 37.375 50.4765625 39.19140625 C47.84045732 40.55444357 46.14304971 40.77703247 43.1875 40.75 C41.9190625 40.76160156 41.9190625 40.76160156 40.625 40.7734375 C37.75384568 40.3041142 36.35308973 39.26989101 34.1875 37.375 C33.630625 37.8596875 33.07375 38.344375 32.5 38.84375 C28.65904343 41.38708611 24.63155967 41.2018018 20.1875 40.375 C17.5625 37.875 17.5625 37.875 16.1875 35.375 C15.0428125 36.3340625 15.0428125 36.3340625 13.875 37.3125 C9.51537724 40.65825701 5.59783541 40.58690749 0.3125 40.625 C-0.39519531 40.645625 -1.10289062 40.66625 -1.83203125 40.6875 C-6.39507965 40.72148919 -9.15159233 40.09892947 -12.8125 37.375 C-13.575625 36.818125 -14.33875 36.26125 -15.125 35.6875 C-15.681875 35.254375 -16.23875 34.82125 -16.8125 34.375 C-17.1425 35.365 -17.4725 36.355 -17.8125 37.375 C-24.07126162 40.43227526 -29.66699086 40.89439665 -36.5625 40.875 C-37.49449219 40.90335938 -38.42648438 40.93171875 -39.38671875 40.9609375 C-46.1809063 40.98043302 -46.1809063 40.98043302 -49.453125 37.84375 C-49.90171875 37.0290625 -50.3503125 36.214375 -50.8125 35.375 C-51.534375 36.014375 -52.25625 36.65375 -53 37.3125 C-57.92929775 40.92731835 -63.4562307 40.63822925 -69.375 40.75 C-70.50711914 40.80607422 -70.50711914 40.80607422 -71.66210938 40.86328125 C-73.87890625 40.8984375 -73.87890625 40.8984375 -77.8125 40.375 C-80.33984375 37.8515625 -80.33984375 37.8515625 -81.8125 35.375 C-82.9571875 36.3340625 -82.9571875 36.3340625 -84.125 37.3125 C-88.48462276 40.65825701 -92.40216459 40.58690749 -97.6875 40.625 C-98.39519531 40.645625 -99.10289062 40.66625 -99.83203125 40.6875 C-105.44126769 40.72928202 -108.57560914 39.45762253 -112.625 35.6875 C-113.016875 35.254375 -113.40875 34.82125 -113.8125 34.375 C-114.26625 35.179375 -114.72 35.98375 -115.1875 36.8125 C-116.8125 39.375 -116.8125 39.375 -118.8125 40.375 C-120.45392541 40.52140501 -122.1023141 40.59596589 -123.75 40.625 C-124.62527344 40.65078125 -125.50054687 40.6765625 -126.40234375 40.703125 C-129.2318869 40.31790357 -130.06382925 39.56805243 -131.8125 37.375 C-132.36808594 37.86355469 -132.92367187 38.35210937 -133.49609375 38.85546875 C-136.21643736 40.63997746 -137.65745592 40.7505891 -140.875 40.6875 C-142.16083984 40.68169922 -142.16083984 40.68169922 -143.47265625 40.67578125 C-145.8125 40.375 -145.8125 40.375 -148.8125 38.375 C-149.4725 37.385 -150.1325 36.395 -150.8125 35.375 C-152.2046875 36.3340625 -152.2046875 36.3340625 -153.625 37.3125 C-158.31268236 40.34570624 -161.61592137 40.55961034 -167.125 40.625 C-168.42050781 40.65078125 -169.71601563 40.6765625 -171.05078125 40.703125 C-175.12150289 40.34804648 -177.41895363 39.62757046 -180.8125 37.375 C-183.86395647 33.35157805 -184.17869737 30.34685503 -184.140625 25.359375 C-184.13781525 24.3747226 -184.13781525 24.3747226 -184.13494873 23.37017822 C-184.12825921 21.99185049 -184.1144067 20.61354073 -184.09375 19.23535156 C-184.06239132 17.11766069 -184.05275534 15.00071333 -184.046875 12.8828125 C-183.97620461 2.53870461 -183.97620461 2.53870461 -182.8125 1.375 C-180.50256618 1.24942838 -178.18831464 1.19924271 -175.875 1.1875 C-174.60785156 1.17332031 -173.34070313 1.15914062 -172.03515625 1.14453125 C-168.8125 1.375 -168.8125 1.375 -166.8125 3.375 C-166.1525 2.715 -165.4925 2.055 -164.8125 1.375 C-161.66015625 1.1796875 -161.66015625 1.1796875 -157.875 1.25 C-156.62847656 1.26804687 -155.38195312 1.28609375 -154.09765625 1.3046875 C-153.01355469 1.32789062 -151.92945313 1.35109375 -150.8125 1.375 C-148.87468107 1.375 -146.93645784 1.34214842 -145 1.26953125 C-143.4221875 1.22892578 -143.4221875 1.22892578 -141.8125 1.1875 C-140.2346875 1.13529297 -140.2346875 1.13529297 -138.625 1.08203125 C-135.8125 1.375 -135.8125 1.375 -133.9375 2.88671875 C-133.56625 3.37785156 -133.195 3.86898438 -132.8125 4.375 C-132.1525 3.385 -131.4925 2.395 -130.8125 1.375 C-127.66015625 1.01171875 -127.66015625 1.01171875 -123.875 1.0625 C-122.62847656 1.06636719 -121.38195312 1.07023437 -120.09765625 1.07421875 C-116.8125 1.375 -116.8125 1.375 -113.8125 3.375 C-113.8125 2.715 -113.8125 2.055 -113.8125 1.375 C-107.8125 1.375 -101.8125 1.375 -95.8125 1.375 C-94.74 1.34019531 -93.6675 1.30539063 -92.5625 1.26953125 C-90.70625 1.22892578 -90.70625 1.22892578 -88.8125 1.1875 C-87.575 1.15269531 -86.3375 1.11789063 -85.0625 1.08203125 C-81.8125 1.375 -81.8125 1.375 -79.875 2.88671875 C-79.524375 3.37785156 -79.17375 3.86898438 -78.8125 4.375 C-78.26215088 3.88604248 -77.71180176 3.39708496 -77.14477539 2.89331055 C-74.33272277 1.06266518 -72.8223078 1.02544818 -69.49609375 1.08203125 C-68.48482422 1.09169922 -67.47355469 1.10136719 -66.43164062 1.11132812 C-65.38169922 1.13646484 -64.33175781 1.16160156 -63.25 1.1875 C-61.66928711 1.20780273 -61.66928711 1.20780273 -60.05664062 1.22851562 C-58.10463336 1.25467526 -56.15269215 1.28699008 -54.20092773 1.32739258 C-50.53738642 1.40041625 -46.8889184 1.3276308 -43.2265625 1.234375 C-40.96355494 1.19710193 -38.70053326 1.16067845 -36.4375 1.125 C-34.73207031 1.07472656 -34.73207031 1.07472656 -32.9921875 1.0234375 C-24.60670199 0.92501631 -24.60670199 0.92501631 -20.5859375 3.203125 C-17.42372284 7.07579318 -17.63659558 10.53762832 -17.8125 15.375 C-18.1425 16.035 -18.4725 16.695 -18.8125 17.375 C-18.1525 17.375 -17.4925 17.375 -16.8125 17.375 C-16.85890625 16.79492188 -16.9053125 16.21484375 -16.953125 15.6171875 C-17.21247454 10.00412245 -16.739956 6.72704583 -12.8125 2.375 C-8.65618164 0.18389739 -4.6104511 -0.00862573 0 0 Z M-50.8125 11.375 C-51.49208603 13.77219432 -51.49208603 13.77219432 -51.8125 16.375 C-51.1525 17.035 -50.4925 17.695 -49.8125 18.375 C-49.8125 16.065 -49.8125 13.755 -49.8125 11.375 C-50.1425 11.375 -50.4725 11.375 -50.8125 11.375 Z M18.1875 15.375 C18.1875 18.345 18.1875 21.315 18.1875 24.375 C19.92397948 22.70011472 19.92397948 22.70011472 21.1875 20.375 C20.47792763 17.64101865 20.47792763 17.64101865 19.1875 15.375 C18.8575 15.375 18.5275 15.375 18.1875 15.375 Z M-79.8125 22.375 C-79.8125 23.365 -79.8125 24.355 -79.8125 25.375 C-79.1525 25.045 -78.4925 24.715 -77.8125 24.375 C-78.4725 23.715 -79.1325 23.055 -79.8125 22.375 Z " fill="#767676" transform="translate(253.8125,15.625)"/>
<path d="M0 0 C1.28003906 0.0103125 2.56007813 0.020625 3.87890625 0.03125 C8.55535687 0.64724789 11.14335193 2.20585193 14.4375 5.5 C14.94600946 9.24919364 14.85427012 13.03275187 14.875 16.8125 C14.90787109 17.85857422 14.94074219 18.90464844 14.97460938 19.98242188 C15.02849229 27.67788208 15.02849229 27.67788208 12.16015625 31.66796875 C6.71507581 35.3318751 0.84802291 35.02879856 -5.5625 34.5 C-9.7235986 32.96696367 -11.10185571 32.19096643 -13.5625 28.5 C-14.07520615 24.72539519 -14.02509796 20.93065802 -14.0625 17.125 C-14.10375 16.0834375 -14.145 15.041875 -14.1875 13.96875 C-14.26232635 6.65447387 -14.26232635 6.65447387 -12.45727539 3.67675781 C-8.70785929 0.13707723 -4.94166313 -0.11967701 0 0 Z " fill="#FAFAFA" transform="translate(253.5625,18.5)"/>
<path d="M0 0 C0.80373047 -0.02900391 1.60746094 -0.05800781 2.43554688 -0.08789062 C7.83306 -0.14526403 11.15457593 0.51930611 15.3125 4.3125 C16.25764732 7.24358186 15.71243004 9.16305095 15.3125 12.3125 C14.3225 13.7975 14.3225 13.7975 13.3125 15.3125 C13.951875 15.621875 14.59125 15.93125 15.25 16.25 C17.3125 17.3125 17.3125 17.3125 18.3125 18.3125 C18.55078125 20.67578125 18.55078125 20.67578125 18.625 23.625 C18.66238281 24.59050781 18.69976562 25.55601563 18.73828125 26.55078125 C18.18785543 30.12097441 17.11226475 31.08344409 14.3125 33.3125 C11.65527344 33.76660156 11.65527344 33.76660156 8.671875 33.703125 C7.06699219 33.68378906 7.06699219 33.68378906 5.4296875 33.6640625 C4.31851563 33.63054688 3.20734375 33.59703125 2.0625 33.5625 C0.37253906 33.53542969 0.37253906 33.53542969 -1.3515625 33.5078125 C-4.13106896 33.46070222 -6.9088534 33.39493361 -9.6875 33.3125 C-9.71215392 28.77352295 -9.73033789 24.23458457 -9.74243164 19.69555664 C-9.7474714 18.15030234 -9.7543032 16.60505284 -9.76293945 15.05981445 C-9.77502076 12.84324971 -9.78073173 10.62674782 -9.78515625 8.41015625 C-9.79031754 7.7153566 -9.79547882 7.02055695 -9.80079651 6.30470276 C-9.80099277 4.6402067 -9.74939129 2.97584501 -9.6875 1.3125 C-7.54146954 -0.83353046 -2.95781505 0.03474332 0 0 Z " fill="#FBFBFB" transform="translate(216.6875,18.6875)"/>
<path d="M0 0 C0.721875 0.00257812 1.44375 0.00515625 2.1875 0.0078125 C2.909375 0.00523438 3.63125 0.00265625 4.375 0 C6.1875 0.1328125 6.1875 0.1328125 7.1875 1.1328125 C7.2758967 3.5084977 7.30280305 5.85489924 7.28515625 8.23046875 C7.2837413 8.93932724 7.28232635 9.64818573 7.28086853 10.37852478 C7.27525443 12.65082962 7.26269963 14.92303725 7.25 17.1953125 C7.24498681 18.73242046 7.24042359 20.26952995 7.23632812 21.80664062 C7.22528042 25.58206892 7.20800641 29.35742421 7.1875 33.1328125 C3.8875 33.1328125 0.5875 33.1328125 -2.8125 33.1328125 C-2.874375 31.9365625 -2.93625 30.7403125 -3 29.5078125 C-3.56162287 24.72550867 -5.50244551 22.52774019 -8.8125 19.1328125 C-8.87308594 20.05964844 -8.93367188 20.98648438 -8.99609375 21.94140625 C-9.07988281 23.13894531 -9.16367188 24.33648437 -9.25 25.5703125 C-9.33121094 26.76527344 -9.41242188 27.96023437 -9.49609375 29.19140625 C-9.8125 32.1328125 -9.8125 32.1328125 -10.8125 33.1328125 C-12.30988124 33.2307182 -13.81192892 33.26256114 -15.3125 33.2578125 C-16.1271875 33.26039062 -16.941875 33.26296875 -17.78125 33.265625 C-19.8125 33.1328125 -19.8125 33.1328125 -20.8125 32.1328125 C-20.90040975 29.84129833 -20.91944038 27.54708726 -20.91015625 25.25390625 C-20.9087413 24.5672438 -20.90732635 23.88058136 -20.90586853 23.17311096 C-20.90025479 20.97213449 -20.88770007 18.77125841 -20.875 16.5703125 C-20.86998676 15.08138167 -20.86542355 13.59244926 -20.86132812 12.10351562 C-20.85028093 8.44658175 -20.83300713 4.78970692 -20.8125 1.1328125 C-12.67147674 0.60442878 -12.67147674 0.60442878 -9.4375 2.59375 C-8.90125 3.22539062 -8.365 3.85703125 -7.8125 4.5078125 C-7.255625 5.13429688 -6.69875 5.76078125 -6.125 6.40625 C-4.8125 8.1328125 -4.8125 8.1328125 -3.8125 10.1328125 C-3.72162109 9.17568359 -3.72162109 9.17568359 -3.62890625 8.19921875 C-3.54511719 7.37292969 -3.46132812 6.54664063 -3.375 5.6953125 C-3.29378906 4.87160156 -3.21257812 4.04789063 -3.12890625 3.19921875 C-2.73263011 0.61119307 -2.62323318 0.19221967 0 0 Z " fill="#F9F9F9" transform="translate(127.8125,18.8671875)"/>
<path d="M0 0 C0.8146875 0.00257812 1.629375 0.00515625 2.46875 0.0078125 C3.2834375 0.00523438 4.098125 0.00265625 4.9375 0 C6.96875 0.1328125 6.96875 0.1328125 7.96875 1.1328125 C8.05601223 2.91352496 8.07574041 4.6976439 8.06640625 6.48046875 C8.06318359 7.56005859 8.05996094 8.63964844 8.05664062 9.75195312 C8.04826172 10.88826172 8.03988281 12.02457031 8.03125 13.1953125 C8.02673828 14.33548828 8.02222656 15.47566406 8.01757812 16.65039062 C8.00574747 19.47791601 7.9892641 22.3053389 7.96875 25.1328125 C9.94875 24.8028125 11.92875 24.4728125 13.96875 24.1328125 C14.29875 16.2128125 14.62875 8.2928125 14.96875 0.1328125 C17.93875 0.1328125 20.90875 0.1328125 23.96875 0.1328125 C26.66823002 2.83229252 25.20389454 10.81129617 25.21875 14.4453125 C25.239375 15.69505859 25.26 16.94480469 25.28125 18.23242188 C25.28640625 19.43318359 25.2915625 20.63394531 25.296875 21.87109375 C25.3062207 22.97493408 25.31556641 24.07877441 25.32519531 25.21606445 C24.92680025 28.47608213 24.23300726 29.79792393 21.96875 32.1328125 C16.65243242 34.79097129 10.78111808 34.70282185 4.96875 34.1328125 C0.8076514 32.59977617 -0.57060571 31.82377893 -3.03125 28.1328125 C-3.27416992 25.32958984 -3.27416992 25.32958984 -3.26171875 21.96875 C-3.25881836 20.16277344 -3.25881836 20.16277344 -3.25585938 18.3203125 C-3.24361328 17.0621875 -3.23136719 15.8040625 -3.21875 14.5078125 C-3.21810547 13.24195313 -3.21746094 11.97609375 -3.21679688 10.671875 C-3.16626917 0.20702529 -3.16626917 0.20702529 0 0 Z " fill="#F9F9F9" transform="translate(145.03125,18.8671875)"/>
<path d="M0 0 C0.721875 0.00257812 1.44375 0.00515625 2.1875 0.0078125 C2.909375 0.00523438 3.63125 0.00265625 4.375 0 C6.1875 0.1328125 6.1875 0.1328125 7.1875 1.1328125 C7.34490605 2.83845028 7.43843392 4.55008494 7.50390625 6.26171875 C7.56674805 7.81342773 7.56674805 7.81342773 7.63085938 9.39648438 C7.67017578 10.48509766 7.70949219 11.57371094 7.75 12.6953125 C7.79318359 13.78779297 7.83636719 14.88027344 7.88085938 16.00585938 C7.98732068 18.71470814 8.08933516 21.42365242 8.1875 24.1328125 C9.8375 24.1328125 11.4875 24.1328125 13.1875 24.1328125 C13.21255615 23.44131104 13.2376123 22.74980957 13.26342773 22.03735352 C13.37902161 18.92313384 13.50191242 15.80924461 13.625 12.6953125 C13.66431641 11.60669922 13.70363281 10.51808594 13.74414062 9.39648438 C13.78603516 8.36201172 13.82792969 7.32753906 13.87109375 6.26171875 C13.90775146 5.30338135 13.94440918 4.34504395 13.98217773 3.35766602 C14.1875 1.1328125 14.1875 1.1328125 15.1875 0.1328125 C16.68488124 0.0349068 18.18692892 0.00306386 19.6875 0.0078125 C20.5021875 0.00523438 21.316875 0.00265625 22.15625 0 C24.1875 0.1328125 24.1875 0.1328125 25.1875 1.1328125 C25.46991575 5.37589515 25.41937056 9.63145851 25.4375 13.8828125 C25.458125 15.07648437 25.47875 16.27015625 25.5 17.5 C25.50515625 18.65242188 25.5103125 19.80484375 25.515625 20.9921875 C25.52964355 22.57725098 25.52964355 22.57725098 25.54394531 24.19433594 C25.13501942 27.56545381 24.2007032 29.4208314 22.1875 32.1328125 C16.79814051 35.0347753 10.14853884 34.81780192 4.1875 34.1328125 C0.99158593 32.85685434 -1.2361483 31.28551591 -2.8125 28.1328125 C-2.90969073 26.11252898 -2.94326517 24.08902519 -2.9453125 22.06640625 C-2.94660156 20.85919922 -2.94789062 19.65199219 -2.94921875 18.40820312 C-2.94341797 16.50844727 -2.94341797 16.50844727 -2.9375 14.5703125 C-2.94136719 13.29994141 -2.94523437 12.02957031 -2.94921875 10.72070312 C-2.94792969 9.51478516 -2.94664063 8.30886719 -2.9453125 7.06640625 C-2.94418457 5.95322021 -2.94305664 4.84003418 -2.94189453 3.69311523 C-2.76549042 0.20264369 -2.76549042 0.20264369 0 0 Z " fill="#F8F8F8" transform="translate(75.8125,18.8671875)"/>
<path d="M0 0 C0.8146875 0.00257812 1.629375 0.00515625 2.46875 0.0078125 C3.2834375 0.00523438 4.098125 0.00265625 4.9375 0 C6.96875 0.1328125 6.96875 0.1328125 7.96875 1.1328125 C8.36023761 2.64446904 8.70847457 4.16750882 9.03125 5.6953125 C9.20785156 6.52160156 9.38445312 7.34789062 9.56640625 8.19921875 C9.69917969 8.83730469 9.83195312 9.47539062 9.96875 10.1328125 C10.62875 10.1328125 11.28875 10.1328125 11.96875 10.1328125 C14.15850773 6.84817591 14.96681563 3.92584975 15.96875 0.1328125 C22.12109375 0.03515625 22.12109375 0.03515625 23.96875 0.1328125 C24.96875 1.1328125 24.96875 1.1328125 25.28125 4.8203125 C25.27330419 9.2699651 23.41187441 11.46812588 20.96875 15.1328125 C21.7301367 18.40677529 23.09584643 20.32345715 24.96875 23.1328125 C25.23277861 26.48597587 25.05626723 29.76339908 24.96875 33.1328125 C21.66875 33.1328125 18.36875 33.1328125 14.96875 33.1328125 C14.62695312 30.15429688 14.62695312 30.15429688 14.28515625 27.17578125 C13.99704265 24.93884857 13.99704265 24.93884857 12.96875 22.1328125 C10.37618101 23.06827248 10.37618101 23.06827248 7.96875 25.1328125 C7.20493519 27.85995412 7.10932352 30.27448428 6.96875 33.1328125 C3.66875 33.1328125 0.36875 33.1328125 -3.03125 33.1328125 C-3.41872826 25.96446471 -3.18379551 23.0847944 0.96875 17.1328125 C0.2073633 13.85884971 -1.15834643 11.94216785 -3.03125 9.1328125 C-3.34379378 6.40997345 -3.16458428 3.88838764 -3.03125 1.1328125 C-2.03125 0.1328125 -2.03125 0.1328125 0 0 Z " fill="#FAFAFA" transform="translate(277.03125,18.8671875)"/>
<path d="M0 0 C0.74121094 -0.00386719 1.48242188 -0.00773437 2.24609375 -0.01171875 C7.7483402 -0.0016598 7.7483402 -0.0016598 8.875 1.125 C9.01615161 3.79558851 8.91747107 6.44932238 8.875 9.125 C4.585 9.125 0.295 9.125 -4.125 9.125 C-4.125 10.115 -4.125 11.105 -4.125 12.125 C-3.53332031 12.16238281 -2.94164062 12.19976562 -2.33203125 12.23828125 C-1.54183594 12.30402344 -0.75164062 12.36976562 0.0625 12.4375 C1.22845703 12.52451172 1.22845703 12.52451172 2.41796875 12.61328125 C5.53889377 13.26326722 7.41376542 14.07683976 9.875 16.125 C10.50390625 19.12109375 10.50390625 19.12109375 10.4375 22.5625 C10.43943359 24.26212891 10.43943359 24.26212891 10.44140625 25.99609375 C9.875 29.125 9.875 29.125 8.51171875 31.51953125 C4.26629557 34.10452225 -0.01630399 33.54321051 -4.875 33.375 C-5.85855469 33.35695312 -6.84210938 33.33890625 -7.85546875 33.3203125 C-10.27963783 33.27324126 -12.70182059 33.20750742 -15.125 33.125 C-15.22265625 26.97265625 -15.22265625 26.97265625 -15.125 25.125 C-14.125 24.125 -14.125 24.125 -10.96484375 24.02734375 C-9.67707031 24.03894531 -8.38929688 24.05054687 -7.0625 24.0625 C-5.77214844 24.07152344 -4.48179687 24.08054687 -3.15234375 24.08984375 C-2.15332031 24.10144531 -1.15429688 24.11304687 -0.125 24.125 C-0.125 23.465 -0.125 22.805 -0.125 22.125 C-0.78886719 22.11082031 -1.45273438 22.09664062 -2.13671875 22.08203125 C-6.49473118 21.84663496 -9.46029752 21.52382149 -13.25 19.25 C-16.02108705 14.63152158 -16.01554315 10.37920461 -15.125 5.125 C-11.28670931 -0.43390375 -6.22683356 -0.03283041 0 0 Z " fill="#F9F9F9" transform="translate(191.125,18.875)"/>
<path d="M0 0 C1.9375 0.125 1.9375 0.125 4 1 C5.75086487 3.54671254 6.1017334 5.27696619 5.671875 8.33203125 C5.17693292 10.57694711 4.62636648 12.7884445 4 15 C2.35 15 0.7 15 -1 15 C-3.54046832 10.62474901 -2.75539749 7.55208112 -1.60546875 2.890625 C-1 1 -1 1 0 0 Z " fill="#848484" transform="translate(258,27)"/>
<path d="M0 0 C2.0625 0.1875 2.0625 0.1875 4 1 C4.89214652 3.67643957 5.13540211 5.25384378 5.125 8 C5.12757813 8.680625 5.13015625 9.36125 5.1328125 10.0625 C5 12 5 12 4 15 C2.35 15 0.7 15 -1 15 C-3.49491849 10.30368284 -2.99613805 7.06370175 -2 2 C-1.34 1.34 -0.68 0.68 0 0 Z " fill="#818181" transform="translate(248,27)"/>
<path d="M0 0 C2.31 0 4.62 0 7 0 C7.33 1.65 7.66 3.3 8 5 C5.36 5 2.72 5 0 5 C0 3.35 0 1.7 0 0 Z " fill="#8C8C8C" transform="translate(217,39)"/>
<path d="M0 0 C1.65 0 3.3 0 5 0 C5.5625 1.9375 5.5625 1.9375 6 4 C5 5 5 5 2.4375 5.0625 C1.2309375 5.0315625 1.2309375 5.0315625 0 5 C0 3.35 0 1.7 0 0 Z " fill="#949494" transform="translate(217,27)"/>
</svg>
