<?xml version="1.0" encoding="UTF-8"?>
<svg version="1.1" xmlns="http://www.w3.org/2000/svg" width="1060" height="220">
<path d="M0 0 C1.875 1.5625 1.875 1.5625 2.875 3.5625 C3.17057554 7.51465076 3.1529886 11.47559123 3.1875 15.4375 C3.21650391 16.53964844 3.24550781 17.64179687 3.27539062 18.77734375 C3.28376953 19.83824219 3.29214844 20.89914063 3.30078125 21.9921875 C3.31536377 22.96397949 3.32994629 23.93577148 3.3449707 24.93701172 C2.74145955 28.30852288 1.51834726 29.45481167 -1.125 31.5625 C-7.80630157 33.78637751 -15.5783222 34.59825785 -22.125 31.5625 C-24.76993731 29.41559317 -25.99596259 28.25729268 -26.62670898 24.86108398 C-26.62485596 23.85376221 -26.62300293 22.84644043 -26.62109375 21.80859375 C-26.62173828 20.70708984 -26.62238281 19.60558594 -26.62304688 18.47070312 C-26.60306641 17.32537109 -26.58308594 16.18003906 -26.5625 15 C-26.56958984 13.85080078 -26.57667969 12.70160156 -26.58398438 11.51757812 C-26.51962947 3.06728405 -26.51962947 3.06728405 -24.71508789 0.7590332 C-18.17261425 -4.16414556 -7.02216818 -3.23019736 0 0 Z " fill="#000000" transform="translate(266.125,20.4375)"/>
<path d="M0 0 C4.54920976 1.13145011 7.361279 5.09194612 10.27734375 8.56640625 C10.60734375 5.92640625 10.93734375 3.28640625 11.27734375 0.56640625 C12.90198217 0.51245147 14.52712916 0.4736343 16.15234375 0.44140625 C17.50972656 0.40660156 17.50972656 0.40660156 18.89453125 0.37109375 C21.27734375 0.56640625 21.27734375 0.56640625 23.27734375 2.56640625 C23.53613281 5.40795898 23.53613281 5.40795898 23.54296875 9 C23.54683594 10.93262695 23.54683594 10.93262695 23.55078125 12.90429688 C23.54449707 13.91327026 23.54449707 13.91327026 23.53808594 14.94262695 C23.5274024 16.99265274 23.53797338 19.04179872 23.55078125 21.09179688 C23.54820312 22.38150391 23.545625 23.67121094 23.54296875 25 C23.54071289 26.18650146 23.53845703 27.37300293 23.53613281 28.59545898 C23.27734375 31.56640625 23.27734375 31.56640625 21.27734375 34.56640625 C19.1484375 34.89453125 19.1484375 34.89453125 16.71484375 34.81640625 C15.90917969 34.8009375 15.10351562 34.78546875 14.2734375 34.76953125 C12.27734375 34.56640625 12.27734375 34.56640625 11.27734375 33.56640625 C11.17421875 32.49390625 11.07109375 31.42140625 10.96484375 30.31640625 C10.21831286 26.24441958 9.06962712 24.53883693 6.27734375 21.56640625 C6.22835937 22.33726563 6.179375 23.108125 6.12890625 23.90234375 C6.05414063 24.90523437 5.979375 25.908125 5.90234375 26.94140625 C5.83273438 27.93914063 5.763125 28.936875 5.69140625 29.96484375 C5.27734375 32.56640625 5.27734375 32.56640625 3.27734375 34.56640625 C1.1484375 34.796875 1.1484375 34.796875 -1.28515625 34.75390625 C-2.09082031 34.74746094 -2.89648438 34.74101563 -3.7265625 34.734375 C-5.72265625 34.56640625 -5.72265625 34.56640625 -6.72265625 33.56640625 C-6.82343745 31.20242157 -6.8623884 28.86829314 -6.85546875 26.50390625 C-6.85642548 25.79741943 -6.8573822 25.09093262 -6.85836792 24.36303711 C-6.85904958 22.86669832 -6.8571963 21.37035658 -6.85302734 19.87402344 C-6.84767882 17.57610468 -6.85297276 15.27838139 -6.859375 12.98046875 C-6.85871422 11.52994748 -6.85743305 10.07942634 -6.85546875 8.62890625 C-6.85749298 7.93724365 -6.85951721 7.24558105 -6.86160278 6.53295898 C-6.83254962 0.65846427 -6.14846339 0.01111838 0 0 Z " fill="#000000" transform="translate(113.72265625,18.43359375)"/>
<path d="M0 0 C3.22899426 -0.0875127 6.45768116 -0.14056146 9.6875 -0.1875 C11.05551758 -0.22520508 11.05551758 -0.22520508 12.45117188 -0.26367188 C21.00895523 -0.35702951 21.00895523 -0.35702951 25 3 C26.49297212 5.98594424 26.11755228 8.70853624 26 12 C25.67 12.66 25.34 13.32 25 14 C25.99 14.6496875 25.99 14.6496875 27 15.3125 C29.75603811 19.01592621 29.55512938 21.90972935 29.3984375 26.4296875 C29 29 29 29 27.125 31.625 C23.80485689 33.77332789 21.96624114 34.12790247 18.02734375 34.1328125 C16.55491211 34.13474609 16.55491211 34.13474609 15.05273438 34.13671875 C14.02470703 34.13285156 12.99667969 34.12898438 11.9375 34.125 C10.90560547 34.12886719 9.87371094 34.13273437 8.81054688 34.13671875 C7.83021484 34.13542969 6.84988281 34.13414063 5.83984375 34.1328125 C4.93613037 34.13168457 4.03241699 34.13055664 3.10131836 34.12939453 C1 34 1 34 0 33 C-0.08843793 30.55169574 -0.11528752 28.13179401 -0.09765625 25.68359375 C-0.0962413 24.95253922 -0.09482635 24.22148468 -0.09336853 23.46827698 C-0.08775408 21.12464368 -0.07519922 18.78110461 -0.0625 16.4375 C-0.05748686 14.85221492 -0.05292363 13.26692834 -0.04882812 11.68164062 C-0.03777997 7.7877239 -0.02050572 3.89387795 0 0 Z M12 9 C12 10.32 12 11.64 12 13 C12.99 12.67 13.98 12.34 15 12 C15 11.01 15 10.02 15 9 C14.01 9 13.02 9 12 9 Z M12 21 C12 22.32 12 23.64 12 25 C13.65 25 15.3 25 17 25 C17 23.68 17 22.36 17 21 C15.35 21 13.7 21 12 21 Z " fill="#000000" transform="translate(207,19)"/>
<path d="M0 0 C0.9075 0.00257812 1.815 0.00515625 2.75 0.0078125 C4.11125 0.00394531 4.11125 0.00394531 5.5 0 C7.75 0.1328125 7.75 0.1328125 8.75 1.1328125 C8.90714654 2.76538008 9.00085414 4.40416588 9.06640625 6.04296875 C9.12924805 7.52700195 9.12924805 7.52700195 9.19335938 9.04101562 C9.23267578 10.08193359 9.27199219 11.12285156 9.3125 12.1953125 C9.35568359 13.24009766 9.39886719 14.28488281 9.44335938 15.36132812 C9.54981225 17.95168134 9.6518276 20.54213436 9.75 23.1328125 C11.4 23.4628125 13.05 23.7928125 14.75 24.1328125 C14.74214478 23.0955603 14.74214478 23.0955603 14.73413086 22.03735352 C14.713425 18.92334898 14.70036037 15.80935889 14.6875 12.6953125 C14.67912109 11.60669922 14.67074219 10.51808594 14.66210938 9.39648438 C14.65727539 7.84477539 14.65727539 7.84477539 14.65234375 6.26171875 C14.64448853 4.82421265 14.64448853 4.82421265 14.63647461 3.35766602 C14.75 1.1328125 14.75 1.1328125 15.75 0.1328125 C17.41429051 0.03457313 19.08281931 0.00307619 20.75 0.0078125 C22.11125 0.00394531 22.11125 0.00394531 23.5 0 C25.75 0.1328125 25.75 0.1328125 26.75 1.1328125 C27.03241575 5.37589515 26.98187056 9.63145851 27 13.8828125 C27.020625 15.07648437 27.04125 16.27015625 27.0625 17.5 C27.06765625 18.65242188 27.0728125 19.80484375 27.078125 20.9921875 C27.09214355 22.57725098 27.09214355 22.57725098 27.10644531 24.19433594 C26.69880139 27.55488544 25.73142361 29.41432591 23.75 32.1328125 C17.49602698 36.23460857 9.88884148 35.27125114 2.9140625 33.8984375 C0.43411295 33.02105463 -0.66107849 32.21888124 -2.25 30.1328125 C-3.33031826 26.84153521 -3.37899995 23.75649671 -3.3828125 20.30859375 C-3.38410156 19.19806641 -3.38539062 18.08753906 -3.38671875 16.94335938 C-3.38285156 15.78900391 -3.37898438 14.63464844 -3.375 13.4453125 C-3.37886719 12.27935547 -3.38273437 11.11339844 -3.38671875 9.91210938 C-3.38542969 8.80544922 -3.38414063 7.69878906 -3.3828125 6.55859375 C-3.38168457 5.54192627 -3.38055664 4.52525879 -3.37939453 3.4777832 C-3.20817495 0.37483217 -3.09747449 0.18283704 0 0 Z " fill="#000000" transform="translate(75.25,18.8671875)"/>
<path d="M0 0 C1.62463842 -0.05395478 3.24978541 -0.09277195 4.875 -0.125 C5.77992188 -0.14820312 6.68484375 -0.17140625 7.6171875 -0.1953125 C10 0 10 0 12 2 C12.22705078 4.24658203 12.22705078 4.24658203 12.1953125 7.0078125 C12.18564453 8.48701172 12.18564453 8.48701172 12.17578125 9.99609375 C12.15902344 11.02863281 12.14226562 12.06117187 12.125 13.125 C12.11597656 14.16527344 12.10695312 15.20554687 12.09765625 16.27734375 C12.07403747 18.85179092 12.04110149 21.42578212 12 24 C13.65 24 15.3 24 17 24 C16.99214478 22.9627478 16.99214478 22.9627478 16.98413086 21.90454102 C16.963425 18.79053648 16.95036037 15.67654639 16.9375 12.5625 C16.92912109 11.47388672 16.92074219 10.38527344 16.91210938 9.26367188 C16.90727539 7.71196289 16.90727539 7.71196289 16.90234375 6.12890625 C16.89448853 4.69140015 16.89448853 4.69140015 16.88647461 3.22485352 C17 1 17 1 18 0 C19.66429051 -0.09823937 21.33281931 -0.12973631 23 -0.125 C24.36125 -0.12886719 24.36125 -0.12886719 25.75 -0.1328125 C28 0 28 0 29 1 C29.31060452 5.40929887 29.27850858 9.83111477 29.3125 14.25 C29.34150391 15.49136719 29.37050781 16.73273437 29.40039062 18.01171875 C29.40876953 19.20925781 29.41714844 20.40679687 29.42578125 21.640625 C29.44036377 22.73922852 29.45494629 23.83783203 29.4699707 24.96972656 C28.89094134 28.70318761 27.6333583 30.33872942 25 33 C18.7916333 35.29107599 12.33320101 35.37623205 5.9375 33.8984375 C3.25542499 32.65473336 1.8607695 31.3118796 0 29 C-0.45410156 25.88378906 -0.45410156 25.88378906 -0.390625 22.265625 C-0.37773437 20.97011719 -0.36484375 19.67460938 -0.3515625 18.33984375 C-0.31814366 16.97655176 -0.28428391 15.61327051 -0.25 14.25 C-0.22992707 12.87111936 -0.21167767 11.49221088 -0.1953125 10.11328125 C-0.14815448 6.74148256 -0.08234538 3.37109313 0 0 Z " fill="#000000" transform="translate(142,19)"/>
<path d="M0 0 C1.62463842 -0.05395478 3.24978541 -0.09277195 4.875 -0.125 C5.77992188 -0.14820312 6.68484375 -0.17140625 7.6171875 -0.1953125 C10 0 10 0 12 2 C12.71927295 4.31765729 13.3909893 6.65095874 14 9 C16.6855594 6.3144406 17.06049974 3.62378672 18 0 C19.64574566 -0.02688151 21.29161413 -0.04634123 22.9375 -0.0625 C23.85402344 -0.07410156 24.77054687 -0.08570312 25.71484375 -0.09765625 C28 0 28 0 29 1 C29.5936444 5.7102277 29.63528961 9.02721279 27 13.0625 C26.34 13.701875 25.68 14.34125 25 15 C26.07401108 17.91517292 26.77810176 19.77810176 29 22 C29.1953125 24.6015625 29.1953125 24.6015625 29.125 27.625 C29.10695313 28.62789062 29.08890625 29.63078125 29.0703125 30.6640625 C29.04710937 31.43492188 29.02390625 32.20578125 29 33 C26.77109005 34.11445498 25.46944894 34.16480286 23 34.1875 C22.29875 34.20167969 21.5975 34.21585938 20.875 34.23046875 C19 34 19 34 17 32 C16.3671875 29.8359375 16.3671875 29.8359375 15.875 27.375 C15.62363281 26.14910156 15.62363281 26.14910156 15.3671875 24.8984375 C15.24601562 24.27195312 15.12484375 23.64546875 15 23 C14.34 23.33 13.68 23.66 13 24 C12.74280183 26.02543556 12.49157878 28.05350224 12.34375 30.08984375 C12 32 12 32 10 34 C7.87109375 34.23046875 7.87109375 34.23046875 5.4375 34.1875 C4.63183594 34.18105469 3.82617188 34.17460938 2.99609375 34.16796875 C1 34 1 34 0 33 C-0.15181257 31.23371914 -0.22182672 29.46006915 -0.25 27.6875 C-0.27578125 26.72199219 -0.3015625 25.75648437 -0.328125 24.76171875 C0.0475448 21.59983123 1.02533881 20.41987658 3 18 C2.7434556 14.49389321 1.9814066 12.9721099 0 10 C-0.1953125 7.51953125 -0.1953125 7.51953125 -0.125 4.8125 C-0.10695313 3.91144531 -0.08890625 3.01039062 -0.0703125 2.08203125 C-0.04710937 1.39496094 -0.02390625 0.70789063 0 0 Z " fill="#000000" transform="translate(274,19)"/>
<path d="M0 0 C0.79792969 -0.00128906 1.59585938 -0.00257812 2.41796875 -0.00390625 C3.66126953 0.00189453 3.66126953 0.00189453 4.9296875 0.0078125 C6.18458984 0.00201172 6.18458984 0.00201172 7.46484375 -0.00390625 C13.67803876 0.00616376 13.67803876 0.00616376 14.8046875 1.1328125 C14.94583911 3.80340101 14.84715857 6.45713488 14.8046875 9.1328125 C12.16010371 10.45510439 10.12707449 10.22958444 7.1796875 10.1953125 C6.17679688 10.18628906 5.17390625 10.17726563 4.140625 10.16796875 C3.36976563 10.15636719 2.59890625 10.14476562 1.8046875 10.1328125 C1.8046875 10.7928125 1.8046875 11.4528125 1.8046875 12.1328125 C3.3515625 12.04 3.3515625 12.04 4.9296875 11.9453125 C9.14183537 12.14912611 12.72530898 13.05343398 15.8046875 16.1328125 C15.98327715 18.23197276 16.07267227 20.33903938 16.1171875 22.4453125 C16.15457031 23.59644531 16.19195312 24.74757813 16.23046875 25.93359375 C15.8046875 29.1328125 15.8046875 29.1328125 13.97265625 31.48828125 C10.87469043 33.83826973 8.38516024 34.25980715 4.609375 34.265625 C3.81144531 34.26691406 3.01351562 34.26820312 2.19140625 34.26953125 C0.94810547 34.26373047 0.94810547 34.26373047 -0.3203125 34.2578125 C-1.57521484 34.26361328 -1.57521484 34.26361328 -2.85546875 34.26953125 C-9.06866376 34.25946124 -9.06866376 34.25946124 -10.1953125 33.1328125 C-10.33724587 30.12950232 -10.23767628 27.14064116 -10.1953125 24.1328125 C-3.7603125 23.6378125 -3.7603125 23.6378125 2.8046875 23.1328125 C1.2165625 22.8646875 -0.3715625 22.5965625 -2.0078125 22.3203125 C-4.68940032 21.86757689 -6.69192958 21.45056614 -8.99609375 19.99609375 C-10.85955912 17.10074202 -10.59155331 14.53134143 -10.5703125 11.1328125 C-10.57804688 9.8953125 -10.58578125 8.6578125 -10.59375 7.3828125 C-10.1953125 4.1328125 -10.1953125 4.1328125 -8.859375 2.2578125 C-5.95851658 0.29666878 -3.39605304 0.00523275 0 0 Z " fill="#000000" transform="translate(186.1953125,18.8671875)"/>
<path d="M0 0 C3.875 1.75 3.875 1.75 5 4 C5.23553948 8.23971058 5.32845886 11.36178302 3 15 C0.51412643 14.66855019 -0.67459316 14.38738909 -2.3125 12.4375 C-3.37108579 8.68433221 -2.74119982 5.82953242 -2 2 C-1.34 1.34 -0.68 0.68 0 0 Z " fill="#F4F4F4" transform="translate(248,27)"/>
<path d="M0 0 C1.9375 0.375 1.9375 0.375 4 1 C5.16983345 3.3396669 5.1661241 4.83391527 5.1875 7.4375 C5.20167969 8.21996094 5.21585937 9.00242187 5.23046875 9.80859375 C5 12 5 12 3 15 C1.0625 14.625 1.0625 14.625 -1 14 C-2.16983345 11.6603331 -2.1661241 10.16608473 -2.1875 7.5625 C-2.20167969 6.78003906 -2.21585938 5.99757813 -2.23046875 5.19140625 C-2 3 -2 3 0 0 Z " fill="#F5F5F5" transform="translate(258,27)"/>
</svg>
